# xmcd
#
# Track frame offsets:
#	183
#	13355
#	22580
#	33680
#	43773
#	54758
#	67015
#	76838
#	86845
#	96263
#	108713
#	121085
#	130280
#	140180
#	149550
#	158700
#	167250
#	178975
#	189175
#	203020
#
# Disc length: 2897 seconds
#
# Revision: 1
# Processed by: cddbd v1.5.2PL0 Copyright (c) Steve Scherf et al.
# Submitted via: audiograbber 1.83.01
#
DISCID=160b4f14
DTITLE=warren smith - Bob bob
DYEAR=1956
DGENRE=rocknroll
TTITLE0=Rockn Roll Ruby
TTITLE1=Ubangi Stmp
TTITLE2=Miss Froggie
TTITLE3=Ive Got if you want it
TTITLE4=Sweet Sweet Girl
TTITLE5=Red Cadillac and black Moustache
TTITLE6=Uranium Rock
TTITLE7=Bop Bop
TTITLE8=Movin on
TTITLE9=Do I Love you
TTITLE10=I fell in Love
TTITLE11=I like youre Kind of Love
TTITLE12=Who
TTITLE13=Tonight will be the last Night
TTITLE14=Dear Jhon
TTITLE15=I Couldnt take a Chance
TTITLE16=Who to my baby
TTITLE17=Solong im gone
TTITLE18=I radher be safe than sorry
TTITLE19=Black Jack David
EXTD=
EXTT0=
EXTT1=
EXTT2=
EXTT3=
EXTT4=
EXTT5=
EXTT6=
EXTT7=
EXTT8=
EXTT9=
EXTT10=
EXTT11=
EXTT12=
EXTT13=
EXTT14=
EXTT15=
EXTT16=
EXTT17=
EXTT18=
EXTT19=
PLAYORDER=
